<mxfile host="app.diagrams.net" modified="2023-09-28T02:11:28.648Z" agent="Mozilla/5.0 (Windows NT 10.0; Win64; x64) AppleWebKit/537.36 (KHTML, like Gecko) Chrome/116.0.0.0 Safari/537.36" etag="VN27Se7FqVpdytC0O0ic" version="21.8.2" type="github">
  <diagram name="Page-1" id="4mqiJcHcu1kF4XN-qrE0">
    <mxGraphModel dx="1000" dy="553" grid="1" gridSize="10" guides="1" tooltips="1" connect="1" arrows="1" fold="1" page="1" pageScale="1" pageWidth="850" pageHeight="1100" math="0" shadow="0">
      <root>
        <mxCell id="0" />
        <mxCell id="1" parent="0" />
        <mxCell id="jW9g3P3dE9bmdUDAt-fi-9" value="" style="rounded=0;whiteSpace=wrap;html=1;fillColor=#d80073;strokeColor=#A50040;fontColor=#ffffff;" vertex="1" parent="1">
          <mxGeometry x="120" y="400" width="640" height="830" as="geometry" />
        </mxCell>
        <mxCell id="jW9g3P3dE9bmdUDAt-fi-4" value="" style="rounded=0;whiteSpace=wrap;html=1;fillColor=#e1d5e7;strokeColor=#9673a6;" vertex="1" parent="1">
          <mxGeometry x="150" y="430" width="570" height="70" as="geometry" />
        </mxCell>
        <mxCell id="jW9g3P3dE9bmdUDAt-fi-3" value="" style="rounded=1;whiteSpace=wrap;html=1;fillColor=#e1d5e7;strokeColor=#9673a6;" vertex="1" parent="1">
          <mxGeometry x="200" y="550" width="470" height="140" as="geometry" />
        </mxCell>
        <mxCell id="jW9g3P3dE9bmdUDAt-fi-10" value="&lt;h1&gt;Heading&lt;/h1&gt;&lt;p&gt;Lorem ipsum dolor sit amet, consectetur adipisicing elit, sed do eiusmod tempor incididunt ut labore et dolore magna aliqua.&lt;/p&gt;" style="text;html=1;strokeColor=none;fillColor=none;spacing=5;spacingTop=-20;whiteSpace=wrap;overflow=hidden;rounded=0;fontColor=#FFFFFF;" vertex="1" parent="1">
          <mxGeometry x="270" y="710" width="310" height="130" as="geometry" />
        </mxCell>
        <mxCell id="jW9g3P3dE9bmdUDAt-fi-11" value="Link" style="text;html=1;strokeColor=none;fillColor=none;align=center;verticalAlign=middle;whiteSpace=wrap;rounded=0;" vertex="1" parent="1">
          <mxGeometry x="250" y="450" width="60" height="30" as="geometry" />
        </mxCell>
        <mxCell id="jW9g3P3dE9bmdUDAt-fi-12" value="Link" style="text;html=1;strokeColor=none;fillColor=none;align=center;verticalAlign=middle;whiteSpace=wrap;rounded=0;" vertex="1" parent="1">
          <mxGeometry x="390" y="450" width="60" height="30" as="geometry" />
        </mxCell>
        <mxCell id="jW9g3P3dE9bmdUDAt-fi-13" value="Link" style="text;html=1;strokeColor=none;fillColor=none;align=center;verticalAlign=middle;whiteSpace=wrap;rounded=0;" vertex="1" parent="1">
          <mxGeometry x="530" y="450" width="60" height="30" as="geometry" />
        </mxCell>
        <mxCell id="jW9g3P3dE9bmdUDAt-fi-14" value="&lt;font style=&quot;font-size: 73px;&quot;&gt;Image&lt;/font&gt;" style="text;html=1;strokeColor=none;fillColor=none;align=center;verticalAlign=middle;whiteSpace=wrap;rounded=0;" vertex="1" parent="1">
          <mxGeometry x="220" y="560" width="390" height="120" as="geometry" />
        </mxCell>
        <mxCell id="jW9g3P3dE9bmdUDAt-fi-16" value="logo" style="text;html=1;strokeColor=none;fillColor=none;align=center;verticalAlign=middle;whiteSpace=wrap;rounded=0;" vertex="1" parent="1">
          <mxGeometry x="150" y="450" width="60" height="30" as="geometry" />
        </mxCell>
        <mxCell id="jW9g3P3dE9bmdUDAt-fi-17" value="" style="rounded=0;whiteSpace=wrap;html=1;" vertex="1" parent="1">
          <mxGeometry x="220" y="890" width="130" height="20" as="geometry" />
        </mxCell>
        <mxCell id="jW9g3P3dE9bmdUDAt-fi-18" value="Heading 2" style="text;html=1;strokeColor=none;fillColor=none;align=center;verticalAlign=middle;whiteSpace=wrap;rounded=0;fontSize=24;fontColor=#FFFFFF;" vertex="1" parent="1">
          <mxGeometry x="265" y="820" width="130" height="30" as="geometry" />
        </mxCell>
        <mxCell id="jW9g3P3dE9bmdUDAt-fi-21" value="" style="rounded=0;whiteSpace=wrap;html=1;" vertex="1" parent="1">
          <mxGeometry x="350" y="890" width="130" height="20" as="geometry" />
        </mxCell>
        <mxCell id="jW9g3P3dE9bmdUDAt-fi-22" value="" style="rounded=0;whiteSpace=wrap;html=1;" vertex="1" parent="1">
          <mxGeometry x="480" y="890" width="130" height="20" as="geometry" />
        </mxCell>
        <mxCell id="jW9g3P3dE9bmdUDAt-fi-23" value="Input" style="text;html=1;strokeColor=none;fillColor=none;align=center;verticalAlign=middle;whiteSpace=wrap;rounded=0;fontColor=#FFFFFF;" vertex="1" parent="1">
          <mxGeometry x="220" y="860" width="60" height="30" as="geometry" />
        </mxCell>
        <mxCell id="jW9g3P3dE9bmdUDAt-fi-24" value="Input" style="text;html=1;strokeColor=none;fillColor=none;align=center;verticalAlign=middle;whiteSpace=wrap;rounded=0;fontColor=#FFFFFF;" vertex="1" parent="1">
          <mxGeometry x="350" y="860" width="60" height="30" as="geometry" />
        </mxCell>
        <mxCell id="jW9g3P3dE9bmdUDAt-fi-25" value="Input" style="text;html=1;strokeColor=none;fillColor=none;align=center;verticalAlign=middle;whiteSpace=wrap;rounded=0;fontColor=#FFFFFF;" vertex="1" parent="1">
          <mxGeometry x="480" y="860" width="60" height="30" as="geometry" />
        </mxCell>
        <mxCell id="jW9g3P3dE9bmdUDAt-fi-26" value="" style="rounded=1;whiteSpace=wrap;html=1;" vertex="1" parent="1">
          <mxGeometry x="350" y="920" width="130" height="40" as="geometry" />
        </mxCell>
        <mxCell id="jW9g3P3dE9bmdUDAt-fi-27" value="SUBMIT" style="text;html=1;strokeColor=none;fillColor=none;align=center;verticalAlign=middle;whiteSpace=wrap;rounded=0;fontSize=16;fontStyle=1" vertex="1" parent="1">
          <mxGeometry x="385" y="925" width="60" height="30" as="geometry" />
        </mxCell>
        <mxCell id="jW9g3P3dE9bmdUDAt-fi-28" value="" style="rounded=0;whiteSpace=wrap;html=1;fillColor=#e1d5e7;strokeColor=#9673a6;" vertex="1" parent="1">
          <mxGeometry x="227.5" y="990" width="385" height="140" as="geometry" />
        </mxCell>
        <mxCell id="jW9g3P3dE9bmdUDAt-fi-29" value="" style="rounded=0;whiteSpace=wrap;html=1;fillColor=#e1d5e7;strokeColor=#9673a6;" vertex="1" parent="1">
          <mxGeometry x="155" y="1160" width="570" height="60" as="geometry" />
        </mxCell>
        <mxCell id="jW9g3P3dE9bmdUDAt-fi-30" value="&lt;font color=&quot;#000000&quot;&gt;Footer&lt;/font&gt;" style="text;html=1;strokeColor=none;fillColor=none;align=center;verticalAlign=middle;whiteSpace=wrap;rounded=0;fontSize=24;fontColor=#FFFFFF;" vertex="1" parent="1">
          <mxGeometry x="350" y="1175" width="130" height="30" as="geometry" />
        </mxCell>
        <mxCell id="jW9g3P3dE9bmdUDAt-fi-31" value="" style="rounded=0;whiteSpace=wrap;html=1;" vertex="1" parent="1">
          <mxGeometry x="240" y="1020" width="110" height="20" as="geometry" />
        </mxCell>
        <mxCell id="jW9g3P3dE9bmdUDAt-fi-32" value="" style="rounded=0;whiteSpace=wrap;html=1;" vertex="1" parent="1">
          <mxGeometry x="240" y="1050" width="110" height="20" as="geometry" />
        </mxCell>
        <mxCell id="jW9g3P3dE9bmdUDAt-fi-33" value="" style="rounded=0;whiteSpace=wrap;html=1;" vertex="1" parent="1">
          <mxGeometry x="240" y="1080" width="110" height="20" as="geometry" />
        </mxCell>
        <mxCell id="jW9g3P3dE9bmdUDAt-fi-34" value="" style="rounded=0;whiteSpace=wrap;html=1;" vertex="1" parent="1">
          <mxGeometry x="365" y="1020" width="110" height="20" as="geometry" />
        </mxCell>
        <mxCell id="jW9g3P3dE9bmdUDAt-fi-35" value="" style="rounded=0;whiteSpace=wrap;html=1;" vertex="1" parent="1">
          <mxGeometry x="490" y="1020" width="110" height="20" as="geometry" />
        </mxCell>
        <mxCell id="jW9g3P3dE9bmdUDAt-fi-36" value="" style="rounded=0;whiteSpace=wrap;html=1;" vertex="1" parent="1">
          <mxGeometry x="365" y="1050" width="110" height="20" as="geometry" />
        </mxCell>
        <mxCell id="jW9g3P3dE9bmdUDAt-fi-37" value="" style="rounded=0;whiteSpace=wrap;html=1;" vertex="1" parent="1">
          <mxGeometry x="365" y="1080" width="110" height="20" as="geometry" />
        </mxCell>
        <mxCell id="jW9g3P3dE9bmdUDAt-fi-38" value="" style="rounded=0;whiteSpace=wrap;html=1;" vertex="1" parent="1">
          <mxGeometry x="490" y="1050" width="110" height="20" as="geometry" />
        </mxCell>
        <mxCell id="jW9g3P3dE9bmdUDAt-fi-39" value="" style="rounded=0;whiteSpace=wrap;html=1;" vertex="1" parent="1">
          <mxGeometry x="490" y="1080" width="110" height="20" as="geometry" />
        </mxCell>
        <mxCell id="jW9g3P3dE9bmdUDAt-fi-40" value="&lt;font color=&quot;#000000&quot;&gt;Text&lt;/font&gt;" style="text;html=1;strokeColor=none;fillColor=none;align=center;verticalAlign=middle;whiteSpace=wrap;rounded=0;fontSize=24;fontFamily=Helvetica;fontColor=#FFFFFF;" vertex="1" parent="1">
          <mxGeometry x="265" y="990" width="60" height="30" as="geometry" />
        </mxCell>
        <mxCell id="jW9g3P3dE9bmdUDAt-fi-41" value="&lt;font color=&quot;#000000&quot;&gt;Text&lt;/font&gt;" style="text;html=1;strokeColor=none;fillColor=none;align=center;verticalAlign=middle;whiteSpace=wrap;rounded=0;fontSize=24;fontFamily=Helvetica;fontColor=#FFFFFF;" vertex="1" parent="1">
          <mxGeometry x="385" y="990" width="60" height="30" as="geometry" />
        </mxCell>
        <mxCell id="jW9g3P3dE9bmdUDAt-fi-42" value="&lt;font color=&quot;#000000&quot;&gt;Text&lt;/font&gt;" style="text;html=1;strokeColor=none;fillColor=none;align=center;verticalAlign=middle;whiteSpace=wrap;rounded=0;fontSize=24;fontFamily=Helvetica;fontColor=#FFFFFF;" vertex="1" parent="1">
          <mxGeometry x="515" y="990" width="60" height="30" as="geometry" />
        </mxCell>
        <mxCell id="jW9g3P3dE9bmdUDAt-fi-43" value="Heading 3" style="text;html=1;strokeColor=none;fillColor=none;align=center;verticalAlign=middle;whiteSpace=wrap;rounded=0;fontSize=24;fontColor=#FFFFFF;" vertex="1" parent="1">
          <mxGeometry x="265" y="960" width="130" height="30" as="geometry" />
        </mxCell>
      </root>
    </mxGraphModel>
  </diagram>
</mxfile>
